<svg width="50" height="50" viewBox="0 0 50 50" fill="none" xmlns="http://www.w3.org/2000/svg">
<g clip-path="url(#clip0_13_535)">
<path d="M45.3125 25C45.3125 13.7812 36.2188 4.6875 25 4.6875C13.7812 4.6875 4.6875 13.7812 4.6875 25C4.6875 36.2188 13.7812 45.3125 25 45.3125C36.2188 45.3125 45.3125 36.2188 45.3125 25ZM0 25C0 11.1934 11.1934 0 25 0C38.8066 0 50 11.1934 50 25C50 38.8066 38.8066 50 25 50C11.1934 50 0 38.8066 0 25Z" fill="white"/>
<path d="M27.2949 12.376C27.2949 11.1064 26.2695 10.0811 25 10.0811C23.7305 10.0811 22.7051 11.1064 22.7051 12.376V22.7051H12.376C11.1064 22.7051 10.0811 23.7305 10.0811 25C10.0811 26.2695 11.1064 27.2949 12.376 27.2949H22.7051V37.624C22.7051 38.8936 23.7305 39.9189 25 39.9189C26.2695 39.9189 27.2949 38.8936 27.2949 37.624V27.2949H37.624C38.8936 27.2949 39.9189 26.2695 39.9189 25C39.9189 23.7305 38.8936 22.7051 37.624 22.7051H27.2949V12.376Z" fill="white"/>
</g>
<defs>
<clipPath id="clip0_13_535">
<rect width="50" height="50" fill="white"/>
</clipPath>
</defs>
</svg>
