<svg width="36" height="23" viewBox="0 0 36 23" fill="none" xmlns="http://www.w3.org/2000/svg">
<path d="M35.704 22H34.2803V11.7432C34.2803 10.1578 33.946 9.00374 33.2773 8.28112C32.6194 7.54772 31.5786 7.18102 30.1549 7.18102C28.2567 7.18102 26.8708 7.66096 25.9972 8.62086C25.1236 9.58075 24.6868 11.1284 24.6868 13.2639V22H23.2469V6.17799H24.4603L24.7353 8.34583H24.8324C25.8462 6.69568 27.6743 5.87061 30.3167 5.87061C33.9082 5.87061 35.704 7.79578 35.704 11.6461V22Z" fill="white"/>
<path d="M9.75832 13.7978V10.0445H18.2032V21.0778C15.7657 21.8867 13.242 22.2912 10.6319 22.2912C7.42869 22.2912 4.97504 21.3475 3.27096 19.46C1.57766 17.5726 0.731018 14.8925 0.731018 11.4196C0.731018 7.93594 1.71248 5.22883 3.67541 3.29826C5.6599 1.36769 8.38858 0.402405 11.8615 0.402405C14.0509 0.402405 16.154 0.83921 18.1709 1.71282L16.6825 5.33668C15.1294 4.56014 13.5116 4.17187 11.8291 4.17187C9.88774 4.17187 8.32387 4.82977 7.13749 6.14558C5.96189 7.4506 5.37409 9.23557 5.37409 11.5005C5.37409 13.7546 5.84865 15.491 6.79775 16.7098C7.74686 17.9285 9.12198 18.5379 10.9231 18.5379C11.8615 18.5379 12.816 18.4408 13.7866 18.2467V13.7978H9.75832Z" fill="white"/>
</svg>
