<svg width="156" height="23" viewBox="0 0 156 23" fill="none" xmlns="http://www.w3.org/2000/svg">
<path d="M153.312 14.6229C154.617 15.4425 155.27 16.548 155.27 17.9393C155.27 19.3199 154.73 20.393 153.652 21.1587C152.584 21.9137 151.025 22.2912 148.976 22.2912C146.938 22.2912 145.293 21.9676 144.042 21.3205V19.7513C145.638 20.5494 147.256 20.9484 148.895 20.9484C150.546 20.9484 151.78 20.695 152.6 20.1881C153.431 19.6812 153.846 19.0071 153.846 18.1658C153.846 17.3138 153.522 16.6235 152.875 16.095C152.228 15.545 151.15 15.0057 149.64 14.4772C148.14 13.938 147.051 13.4526 146.372 13.0212C145.703 12.5898 145.212 12.1153 144.899 11.5976C144.587 11.0691 144.43 10.4382 144.43 9.70475C144.43 8.51837 144.926 7.58544 145.919 6.90596C146.922 6.2157 148.291 5.87057 150.028 5.87057C151.764 5.87057 153.409 6.18874 154.962 6.82507L154.412 8.13549C152.848 7.49916 151.414 7.18099 150.109 7.18099C148.804 7.18099 147.774 7.39669 147.019 7.82811C146.264 8.24873 145.886 8.8581 145.886 9.65622C145.886 10.4435 146.183 11.0853 146.776 11.5814C147.369 12.0775 148.437 12.606 149.979 13.1668C151.532 13.7169 152.643 14.2022 153.312 14.6229Z" fill="white"/>
<path d="M138.059 22H136.554L133.092 11.4196C132.833 10.5892 132.548 9.53221 132.235 8.24876H132.138L131.183 11.452L127.656 22H126.233L121.703 6.17798H123.24L125.78 15.3509C126.384 17.6158 126.772 19.2821 126.945 20.3499H127.026C127.586 18.1065 128.007 16.5966 128.287 15.82L131.539 6.17798H132.85L135.956 15.8039C136.689 18.1982 137.115 19.7081 137.234 20.3337H137.331C137.417 19.6866 137.805 17.9933 138.496 15.2538L140.906 6.17798H142.362L138.059 22Z" fill="white"/>
<path d="M118.589 13.0051C118.589 11.1823 118.19 9.75328 117.392 8.71789C116.605 7.67172 115.472 7.14863 113.995 7.14863C112.517 7.14863 111.32 7.65554 110.403 8.66936C109.486 9.67239 108.952 11.1176 108.801 13.0051H118.589ZM114.512 22.2912C112.215 22.2912 110.419 21.5848 109.125 20.1719C107.842 18.7374 107.2 16.7529 107.2 14.2184C107.2 11.6839 107.82 9.66161 109.06 8.15167C110.311 6.63094 111.989 5.87057 114.092 5.87057C115.957 5.87057 117.424 6.52309 118.492 7.82811C119.571 9.11156 120.11 10.875 120.11 13.1183V14.2831H108.721C108.731 16.451 109.233 18.1119 110.225 19.2659C111.228 20.4092 112.657 20.9808 114.512 20.9808C115.386 20.9808 116.173 20.9215 116.874 20.8028C117.575 20.6734 118.449 20.3984 119.495 19.9778V21.2882C118.632 21.6657 117.818 21.9245 117.052 22.0647C116.286 22.2157 115.44 22.2912 114.512 22.2912Z" fill="white"/>
<path d="M102.985 22H101.562V11.7432C101.562 10.1577 101.227 9.00371 100.559 8.28109C99.9006 7.54769 98.8598 7.18099 97.4362 7.18099C95.538 7.18099 94.1521 7.66093 93.2785 8.62083C92.4048 9.58072 91.968 11.1284 91.968 13.2639V22H90.5282V6.17796H91.7415L92.0166 8.3458H92.1136C93.1275 6.69565 94.9556 5.87057 97.598 5.87057C101.189 5.87057 102.985 7.79575 102.985 11.6461V22Z" fill="white"/>
<path d="M81.4416 11.7108C81.4308 10.9127 81.2097 10.2764 80.7783 9.80182C80.3469 9.32726 79.7698 9.08999 79.0472 9.08999C78.3354 9.08999 77.7584 9.31108 77.3162 9.75328C76.8848 10.1847 76.6313 10.8372 76.5558 11.7108H81.4416ZM79.3708 22.2912C76.6205 22.2912 74.485 21.5632 72.9643 20.1072C71.4436 18.6296 70.6832 16.5211 70.6832 13.7816C70.6832 11.0421 71.3843 8.92821 72.7864 7.43983C74.1885 5.95146 76.1676 5.20728 78.7237 5.20728C81.2798 5.20728 83.2319 5.85979 84.5801 7.16481C85.939 8.46983 86.6185 10.3357 86.6185 12.7624V15.2861H76.4426C76.4749 16.2137 76.8093 16.9417 77.4456 17.4702C78.0819 17.9879 78.9178 18.2467 79.9532 18.2467C80.9994 18.2467 81.9485 18.155 82.8005 17.9717C83.6526 17.7775 84.5639 17.4486 85.5346 16.9848V21.0779C84.6718 21.5308 83.7604 21.8436 82.8005 22.0162C81.8514 22.1995 80.7082 22.2912 79.3708 22.2912Z" fill="white"/>
<path d="M67.532 22H61.8374V13.0374C61.8374 11.8942 61.6864 11.0529 61.3844 10.5136C61.0824 9.9636 60.5971 9.68857 59.9284 9.68857C59.0548 9.68857 58.413 10.0607 58.0032 10.8048C57.6041 11.549 57.4046 12.7192 57.4046 14.3155V22H51.6938V13.0374C51.6938 11.9049 51.5428 11.0637 51.2408 10.5136C50.9496 9.9636 50.4858 9.68857 49.8495 9.68857C48.9435 9.68857 48.2856 10.0876 47.8758 10.8857C47.4767 11.6839 47.2772 12.9835 47.2772 14.7846V22H41.5826V5.49848H45.8859L46.5977 7.5369H46.9375C47.3581 6.79272 47.9837 6.22109 48.8141 5.82204C49.6446 5.4122 50.5937 5.20728 51.6614 5.20728C54.045 5.20728 55.7167 5.92989 56.6766 7.37512H57.1296C57.5934 6.69565 58.2405 6.16717 59.071 5.78968C59.9014 5.40141 60.8182 5.20728 61.8212 5.20728C63.7518 5.20728 65.1862 5.70879 66.1245 6.71183C67.0629 7.70407 67.532 9.2248 67.532 11.274V22Z" fill="white"/>
<path d="M37.7258 22H33.7946L32.6945 19.816H32.5812C31.837 20.7543 31.0551 21.4014 30.2354 21.7573C29.4265 22.1132 28.3965 22.2912 27.1454 22.2912C25.5815 22.2912 24.3574 21.822 23.473 20.8837C22.5886 19.9454 22.1464 18.6404 22.1464 16.9687C22.1464 13.5821 24.5246 11.7917 29.2809 11.5976L32.0473 11.5005V11.274C32.0473 9.91506 31.3733 9.23559 30.0251 9.23559C28.8387 9.23559 27.3126 9.64004 25.4467 10.4489L23.7966 6.69565C25.7271 5.7034 28.1538 5.20728 31.0767 5.20728C33.1906 5.20728 34.8245 5.73576 35.9786 6.79272C37.1434 7.84968 37.7258 9.31108 37.7258 11.1769V22ZM27.9543 16.7583C27.9543 17.7722 28.4936 18.2791 29.5721 18.2791C30.2624 18.2791 30.8502 18.0634 31.3355 17.6319C31.8208 17.2005 32.0635 16.6289 32.0635 15.9171V14.639L30.7531 14.6876C28.8872 14.7738 27.9543 15.4641 27.9543 16.7583Z" fill="white"/>
<path d="M9.83926 13.9757V9.54298H19.0283V21.0132C16.5477 21.8652 13.8082 22.2912 10.8099 22.2912C7.54199 22.2912 5.00744 21.3421 3.20629 19.4439C1.41593 17.5457 0.520752 14.8547 0.520752 11.3711C0.520752 7.88744 1.49682 5.19111 3.44896 3.28211C5.4011 1.36233 8.15136 0.402435 11.6997 0.402435C14.2666 0.402435 16.5639 0.850026 18.5915 1.74521L16.7796 6.25886C15.2589 5.50389 13.6141 5.1264 11.8453 5.1264C10.0873 5.1264 8.74994 5.67106 7.83319 6.76037C6.91644 7.84969 6.45806 9.40277 6.45806 11.4196C6.45806 13.4257 6.8733 14.9518 7.70376 15.998C8.53423 17.0442 9.7314 17.5672 11.2953 17.5672C12.1689 17.5672 12.9508 17.481 13.6411 17.3084V13.9757H9.83926Z" fill="white"/>
</svg>
